<svg width="80" height="80" viewBox="0 0 80 80" fill="none" xmlns="http://www.w3.org/2000/svg">
<path d="M4.47216 8.83008L9.45849 66.1772V71.125C9.46288 74.5752 12.2583 77.3706 15.7085 77.375H28.2085C31.6587 77.3706 34.4541 74.5752 34.4585 71.125V66.1772L39.4443 8.83008L40.6714 3.92871C40.7646 3.55518 40.6811 3.15918 40.4438 2.85596C40.207 2.55273 39.8437 2.375 39.4585 2.375H4.45849C4.07324 2.375 3.71044 2.55273 3.47265 2.85596C3.23583 3.15918 3.15234 3.55518 3.2456 3.92871L4.47216 8.83008ZM33.2588 51.125H10.6587L10.0073 43.625H33.9097L33.2588 51.125ZM33.0415 53.625L32.0625 64.875H11.855L10.876 53.625H33.0415ZM17.5835 67.375H26.3335V68.625C26.3335 69.3154 25.7739 69.875 25.0835 69.875H18.8335C18.1431 69.875 17.5835 69.3154 17.5835 68.625V67.375ZM31.9585 71.125C31.9585 73.1958 30.2793 74.875 28.2085 74.875H15.7085C13.6377 74.875 11.9585 73.1958 11.9585 71.125V67.375H15.0835V68.625C15.0835 70.6958 16.7627 72.375 18.8335 72.375H25.0835C27.1543 72.375 28.8335 70.6958 28.8335 68.625V67.375H31.9585V71.125ZM34.127 41.125H9.79003L7.07226 9.875H36.8452L34.127 41.125ZM37.8569 4.875L37.2319 7.375H6.68456L6.05956 4.875H37.8569Z" fill="#69B99D"/>
<path d="M50.7085 77.375H68.2085C70.2793 77.375 71.9585 75.6958 71.9585 73.625V26.125C71.9556 23.6426 70.4834 21.3979 68.2085 20.4048V16.125C68.2085 15.4346 67.6489 14.875 66.9585 14.875H63.2085V9.875H75.7085C76.2139 9.875 76.67 9.57031 76.8633 9.10352C77.0567 8.63672 76.9493 8.09863 76.5923 7.74121L74.0923 5.24121C73.9014 5.05029 73.6533 4.92627 73.3863 4.88721L55.8862 2.38721C55.8272 2.37939 55.7676 2.375 55.7085 2.375H50.7085C50.0181 2.375 49.4585 2.93457 49.4585 3.625V8.625C49.4585 9.31543 50.0181 9.875 50.7085 9.875H55.7085V14.875H51.9585C51.2681 14.875 50.7085 15.4346 50.7085 16.125V20.4048C48.4336 21.3979 46.9614 23.6426 46.9585 26.125V73.625C46.9585 75.6958 48.6377 77.375 50.7085 77.375ZM69.4585 32.375H49.4585V29.875H69.4585V32.375ZM69.4585 59.875H49.4585V34.875H69.4585V59.875ZM68.2085 74.875H50.7085C50.0181 74.875 49.4585 74.3154 49.4585 73.625V62.375H69.4585V73.625C69.4585 74.3154 68.8989 74.875 68.2085 74.875ZM51.9585 4.875H55.6201L72.6197 7.30371L72.6909 7.375H51.9585V4.875ZM58.2085 9.875H60.7085V14.875H58.2085V9.875ZM53.2085 17.375H65.7085V19.875H53.2085V17.375ZM53.2085 22.375H65.7085C67.7793 22.375 69.4585 24.0542 69.4585 26.125V27.375H49.4585V26.125C49.4585 24.0542 51.1377 22.375 53.2085 22.375Z" fill="#69B99D"/>
<path d="M14.4585 48.625H29.4585C30.1489 48.625 30.7085 48.0654 30.7085 47.375C30.7085 46.6846 30.1489 46.125 29.4585 46.125H14.4585C13.7681 46.125 13.2085 46.6846 13.2085 47.375C13.2085 48.0654 13.7681 48.625 14.4585 48.625Z" fill="#69B99D"/>
<path d="M59.4585 69.875H54.4585V66.125C54.4585 65.4346 53.8989 64.875 53.2085 64.875C52.5181 64.875 51.9585 65.4346 51.9585 66.125V71.125C51.9585 71.8154 52.5181 72.375 53.2085 72.375H59.4585C60.1489 72.375 60.7085 71.8154 60.7085 71.125C60.7085 70.4346 60.1489 69.875 59.4585 69.875Z" fill="#69B99D"/>
<path d="M65.7085 69.875H64.4585C63.7681 69.875 63.2085 70.4346 63.2085 71.125C63.2085 71.8154 63.7681 72.375 64.4585 72.375H65.7085C66.3989 72.375 66.9585 71.8154 66.9585 71.125C66.9585 70.4346 66.3989 69.875 65.7085 69.875Z" fill="#69B99D"/>
<path d="M27.8134 62.3115C28.4687 62.5288 29.1752 62.1748 29.393 61.52L30.643 57.77C30.8617 57.1142 30.5073 56.4057 29.851 56.187C29.1948 55.9692 28.4867 56.3237 28.2685 56.9799L27.0185 60.73C26.914 61.0449 26.9389 61.3886 27.0878 61.685C27.2367 61.9819 27.498 62.207 27.8134 62.3115Z" fill="#69B99D"/>
</svg>
