<svg width="30" height="30" viewBox="0 0 30 30" fill="none" xmlns="http://www.w3.org/2000/svg">
<path d="M26.5698 17.1221C28.2672 16.5197 29.2953 14.7945 29.0174 13.0149C28.7392 11.2356 27.2339 9.90603 25.4337 9.85019C26.9679 8.50897 27.1484 6.18742 25.8402 4.62517C24.5317 3.06277 22.2145 2.83298 20.625 4.10812V1.40661C20.625 1.14788 20.4152 0.937866 20.1563 0.937866H9.84397C9.58507 0.937866 9.37522 1.14788 9.37522 1.40661V4.11505C7.78774 2.83627 5.46874 3.06314 4.15901 4.62502C2.84926 6.18704 3.03017 8.5099 4.56622 9.85019C2.76613 9.90603 1.26085 11.2356 0.982716 13.0149C0.704583 14.7945 1.7327 16.5197 3.43006 17.1221C2.06101 18.1116 1.52305 19.8948 2.11704 21.4761C2.71065 23.0574 4.28936 24.046 5.97135 23.8896C7.65315 23.7332 9.02257 22.4707 9.31462 20.8071C9.84615 21.5479 10.5007 22.1922 11.2502 22.7121V25.3125H7.03151C5.73769 25.3141 4.68907 26.3624 4.6878 27.6562V28.5937C4.6878 28.8526 4.89761 29.0624 5.15655 29.0624H24.8437C25.1026 29.0624 25.3125 28.8526 25.3125 28.5937V27.6562C25.3108 26.3624 24.2624 25.3141 22.9687 25.3125H18.7501V22.7121C19.4991 22.1922 20.1539 21.5479 20.6854 20.8071C20.9746 22.4748 22.3453 23.742 24.0306 23.8998C25.7157 24.0579 27.298 23.0673 27.8916 21.482C28.4856 19.897 27.944 18.1107 26.5698 17.1221ZM28.1249 13.5939C28.1249 15.1472 26.8655 16.4064 25.3125 16.4064C23.759 16.4064 22.5 15.1472 22.5 13.5939C22.5 12.0408 23.759 10.7815 25.3125 10.7815C26.865 10.7831 28.1233 12.0412 28.1249 13.5939ZM22.004 11.8325C21.8538 11.3601 21.668 10.9001 21.4481 10.4563C21.8893 10.6524 22.3645 10.761 22.8472 10.7754C22.5048 11.074 22.2189 11.4322 22.004 11.8325ZM22.9687 4.21908C24.4623 4.21724 25.6972 5.3836 25.7801 6.87532C25.863 8.36688 24.7657 9.66307 23.2807 9.82713C21.796 9.991 20.4419 8.96564 20.1975 7.49185C20.4381 7.4728 20.6236 7.27285 20.625 7.0315V5.48485C21.1412 4.69293 22.0234 4.21668 22.9687 4.21908ZM19.6875 6.56279H17.3438V1.87535H19.6875V6.56279ZM16.4064 1.87535V6.56279H13.5939V1.87535H16.4064ZM7.9959 11.8325C7.78076 11.432 7.49494 11.074 7.15234 10.7754C7.635 10.7608 8.11016 10.6524 8.55142 10.4563C8.33171 10.9003 8.14605 11.3604 7.9959 11.8325ZM10.3127 1.87535H12.6564V6.56279H10.3127V1.87535ZM4.21905 7.0315C4.21702 5.78954 5.03092 4.69368 6.22054 4.3366C7.41034 3.97975 8.69317 4.44667 9.37522 5.48485V7.0315C9.37631 7.27285 9.56216 7.4728 9.80257 7.49185C9.55447 8.92698 8.25169 9.93498 6.80025 9.81524C5.34896 9.69565 4.22895 8.48793 4.21905 7.0315ZM1.87534 13.5939C1.87534 12.0408 3.13435 10.7815 4.6878 10.7815C6.24086 10.7815 7.50026 12.0408 7.50026 13.5939C7.50026 15.1472 6.24086 16.4064 4.6878 16.4064C3.13509 16.4049 1.87662 15.1466 1.87534 13.5939ZM5.62526 22.9687C4.07182 22.9687 2.81283 21.7096 2.81283 20.1563C2.81283 18.6032 4.07182 17.3439 5.62526 17.3439C7.17836 17.3439 8.43772 18.6032 8.43772 20.1563C8.43607 21.709 7.1778 22.9673 5.62526 22.9687ZM6.88264 16.6283C7.12965 16.4494 7.3545 16.2416 7.55171 16.0094C7.5852 16.3573 7.63519 16.6997 7.70201 17.0366C7.44697 16.8672 7.17157 16.7301 6.88264 16.6283ZM18.0299 22.0657C17.8944 22.1518 17.8124 22.3012 17.8126 22.4616V25.7812C17.8126 26.0401 18.0224 26.25 18.2813 26.25H22.9687C23.7453 26.25 24.375 26.8797 24.375 27.6562V28.1249H5.62526V27.6562C5.62526 26.8797 6.25459 26.25 7.03151 26.25H11.7189C11.9778 26.25 12.1877 26.0401 12.1877 25.7812V22.4597C12.1877 22.2991 12.1056 22.1497 11.97 22.0637C9.79121 20.6809 8.43772 17.9745 8.43772 15.0001C8.39051 12.5975 9.34665 10.2834 11.0757 8.61445C10.916 9.64255 10.8175 10.6793 10.7814 11.7189C10.7814 11.9778 10.9913 12.1877 11.2502 12.1877C11.5091 12.1877 11.7189 11.9778 11.7189 11.7189C11.7823 10.4169 11.9233 9.11962 12.1408 7.83404C12.3495 7.70973 12.5652 7.5982 12.7875 7.50025H13.0464C12.8256 8.89679 12.6951 10.3059 12.6564 11.7189C12.6564 11.9778 12.8662 12.1877 13.1251 12.1877C13.384 12.1877 13.5939 11.9778 13.5939 11.7189C13.6369 10.3057 13.7708 8.89642 13.9951 7.50025H14.5314V11.7189C14.5314 11.9778 14.7412 12.1877 15.0001 12.1877C15.259 12.1877 15.4689 11.9778 15.4689 11.7189V7.50025H16.0052C16.2291 8.89642 16.3632 10.3057 16.4064 11.7189C16.4064 11.9778 16.6162 12.1877 16.8751 12.1877C17.134 12.1877 17.3438 11.9778 17.3438 11.7189C17.3048 10.3059 17.1747 8.89679 16.9538 7.50025H17.212C17.4346 7.5982 17.6513 7.70973 17.8604 7.83404C18.0775 9.11962 18.2182 10.4169 18.2813 11.7189C18.2813 11.9778 18.4912 12.1877 18.7501 12.1877C19.009 12.1877 19.2188 11.9778 19.2188 11.7189C19.1824 10.6793 19.0842 9.64255 18.9244 8.61445C20.6536 10.2834 21.6094 12.5975 21.5625 15.0001C21.5625 17.9745 20.2087 20.6809 18.0299 22.0637V22.0657ZM22.4482 16.0094C22.6458 16.2416 22.8702 16.4494 23.1172 16.6283C22.8285 16.7301 22.5533 16.8672 22.2979 17.0366C22.3645 16.6999 22.4147 16.3575 22.4482 16.0094ZM24.375 22.9687C22.8215 22.9687 21.5625 21.7096 21.5625 20.1563C21.5625 18.6032 22.8215 17.3439 24.375 17.3439C25.9281 17.3439 27.1874 18.6032 27.1874 20.1563C27.1858 21.709 25.9275 22.9673 24.375 22.9687Z" fill="#69B99D"/>
</svg>
