<svg width="250" height="38" viewBox="0 0 250 38" fill="none" xmlns="http://www.w3.org/2000/svg">
<path d="M6.34868 9.6901C6.94271 8.7248 7.79663 7.94514 8.91043 7.35111C10.0242 6.75708 11.2989 6.46006 12.7345 6.46006C14.4423 6.46006 15.9893 6.89321 17.3753 7.7595C18.7614 8.62579 19.8505 9.86335 20.6425 11.4722C21.4593 13.081 21.8677 14.9497 21.8677 17.0783C21.8677 19.2069 21.4593 21.088 20.6425 22.7216C19.8505 24.3304 18.7614 25.5804 17.3753 26.4714C15.9893 27.3377 14.4423 27.7709 12.7345 27.7709C11.2742 27.7709 9.99949 27.4862 8.91043 26.9169C7.82138 26.3229 6.96746 25.5432 6.34868 24.5779V27.4738H0V0H6.34868V9.6901ZM15.4076 17.0783C15.4076 15.4943 14.9621 14.2567 14.0711 13.3657C13.2048 12.4499 12.1281 11.992 10.841 11.992C9.57872 11.992 8.50204 12.4499 7.611 13.3657C6.7447 14.2814 6.31156 15.5314 6.31156 17.1155C6.31156 18.6995 6.7447 19.9495 7.611 20.8653C8.50204 21.7811 9.57872 22.239 10.841 22.239C12.1033 22.239 13.18 21.7811 14.0711 20.8653C14.9621 19.9247 15.4076 18.6624 15.4076 17.0783Z" fill="#0F241D"/>
<path d="M44.7271 16.7813C44.7271 17.3753 44.6899 17.9941 44.6157 18.6377H30.2476C30.3466 19.9247 30.755 20.9148 31.4728 21.6078C32.2153 22.2761 33.1188 22.6102 34.1831 22.6102C35.7671 22.6102 36.8686 21.9419 37.4873 20.6054H44.2444C43.8979 21.9667 43.2668 23.1919 42.351 24.2809C41.4599 25.37 40.3337 26.2239 38.9724 26.8427C37.6111 27.4615 36.0889 27.7709 34.4058 27.7709C32.3762 27.7709 30.5694 27.3377 28.9853 26.4714C27.4012 25.6051 26.1637 24.3676 25.2726 22.7587C24.3816 21.1499 23.9361 19.2688 23.9361 17.1155C23.9361 14.9621 24.3692 13.081 25.2355 11.4722C26.1265 9.86335 27.3641 8.62579 28.9482 7.7595C30.5323 6.89321 32.3515 6.46006 34.4058 6.46006C36.4107 6.46006 38.1928 6.88083 39.7521 7.72238C41.3114 8.56392 42.5242 9.76435 43.3905 11.3237C44.2816 12.883 44.7271 14.7022 44.7271 16.7813ZM38.2299 15.1106C38.2299 14.0216 37.8586 13.1553 37.1161 12.5117C36.3735 11.8682 35.4454 11.5464 34.3316 11.5464C33.2673 11.5464 32.3638 11.8558 31.6213 12.4746C30.9035 13.0934 30.458 13.9721 30.2847 15.1106H38.2299Z" fill="#0F241D"/>
<path d="M46.814 17.0783C46.814 14.9497 47.21 13.081 48.0021 11.4722C48.8189 9.86335 49.9203 8.62579 51.3063 7.7595C52.6924 6.89321 54.2394 6.46006 55.9472 6.46006C57.4075 6.46006 58.6822 6.75708 59.7713 7.35111C60.8851 7.94514 61.739 8.7248 62.333 9.6901V6.75708H68.6817V27.4738H62.333V24.5408C61.7142 25.5061 60.8479 26.2858 59.7341 26.8798C58.6451 27.4738 57.3704 27.7709 55.9101 27.7709C54.227 27.7709 52.6924 27.3377 51.3063 26.4714C49.9203 25.5804 48.8189 24.3304 48.0021 22.7216C47.21 21.088 46.814 19.2069 46.814 17.0783ZM62.333 17.1155C62.333 15.5314 61.8875 14.2814 60.9964 13.3657C60.1302 12.4499 59.0658 11.992 57.8035 11.992C56.5412 11.992 55.4646 12.4499 54.5735 13.3657C53.7072 14.2567 53.2741 15.4943 53.2741 17.0783C53.2741 18.6624 53.7072 19.9247 54.5735 20.8653C55.4646 21.7811 56.5412 22.239 57.8035 22.239C59.0658 22.239 60.1302 21.7811 60.9964 20.8653C61.8875 19.9495 62.333 18.6995 62.333 17.1155Z" fill="#0F241D"/>
<path d="M93.7316 6.75708V27.4738H87.3829V24.6522C86.7393 25.568 85.8607 26.3105 84.7469 26.8798C83.6578 27.4243 82.445 27.6966 81.1084 27.6966C79.5244 27.6966 78.1259 27.3501 76.9131 26.657C75.7003 25.9393 74.7598 24.9121 74.0915 23.5755C73.4232 22.239 73.0891 20.6673 73.0891 18.8604V6.75708H79.4006V18.0065C79.4006 19.3926 79.7595 20.4692 80.4773 21.2365C81.1951 22.0038 82.1604 22.3875 83.3732 22.3875C84.6107 22.3875 85.5884 22.0038 86.3062 21.2365C87.024 20.4692 87.3829 19.3926 87.3829 18.0065V6.75708H93.7316Z" fill="#0F241D"/>
<path d="M109.838 22.0905V27.4738H106.608C104.306 27.4738 102.512 26.9169 101.225 25.8031C99.9377 24.6646 99.2942 22.8206 99.2942 20.2712V12.0291H96.7696V6.75708H99.2942V1.70783H105.643V6.75708H109.801V12.0291H105.643V20.3455C105.643 20.9643 105.791 21.4098 106.088 21.6821C106.385 21.9543 106.88 22.0905 107.573 22.0905H109.838Z" fill="#0F241D"/>
<path d="M134.537 6.75708L121.542 37.3124H114.711L119.463 26.7684L111.036 6.75708H118.127L122.916 19.7143L127.668 6.75708H134.537Z" fill="#0F241D"/>
<path d="M145.001 27.7709C143.195 27.7709 141.586 27.4615 140.175 26.8427C138.764 26.2239 137.65 25.3824 136.834 24.3181C136.017 23.229 135.559 22.0162 135.46 20.6796H141.734C141.809 21.3974 142.143 21.9791 142.737 22.4246C143.331 22.8701 144.061 23.0929 144.927 23.0929C145.719 23.0929 146.326 22.9444 146.746 22.6474C147.192 22.3256 147.415 21.9172 147.415 21.4222C147.415 20.8281 147.105 20.395 146.487 20.1227C145.868 19.8257 144.865 19.5039 143.479 19.1574C141.994 18.8109 140.757 18.452 139.767 18.0808C138.777 17.6847 137.923 17.0783 137.205 16.2615C136.487 15.42 136.128 14.2938 136.128 12.883C136.128 11.6949 136.45 10.6183 137.093 9.65297C137.762 8.66292 138.727 7.88326 139.989 7.31398C141.276 6.7447 142.799 6.46006 144.556 6.46006C147.155 6.46006 149.197 7.10359 150.682 8.39066C152.192 9.67772 153.058 11.3856 153.281 13.5142H147.415C147.316 12.7964 146.994 12.2271 146.449 11.8063C145.93 11.3856 145.237 11.1752 144.37 11.1752C143.628 11.1752 143.058 11.3237 142.662 11.6207C142.266 11.893 142.068 12.2766 142.068 12.7716C142.068 13.3657 142.378 13.8112 142.997 14.1082C143.64 14.4052 144.63 14.7022 145.967 14.9992C147.501 15.3952 148.751 15.7913 149.717 16.1873C150.682 16.5586 151.523 17.1773 152.241 18.0436C152.984 18.8852 153.367 20.0237 153.392 21.4593C153.392 22.6721 153.046 23.7612 152.353 24.7265C151.684 25.667 150.707 26.4095 149.42 26.9541C148.157 27.4986 146.685 27.7709 145.001 27.7709Z" fill="#F9F9F9"/>
<path d="M156.014 17.0783C156.014 14.9497 156.41 13.081 157.202 11.4722C158.019 9.86335 159.12 8.62579 160.506 7.7595C161.892 6.89321 163.439 6.46006 165.147 6.46006C166.607 6.46006 167.882 6.75708 168.971 7.35111C170.085 7.94514 170.939 8.7248 171.533 9.6901V6.75708H177.882V27.4738H171.533V24.5408C170.914 25.5061 170.048 26.2858 168.934 26.8798C167.845 27.4738 166.57 27.7709 165.11 27.7709C163.427 27.7709 161.892 27.3377 160.506 26.4714C159.12 25.5804 158.019 24.3304 157.202 22.7216C156.41 21.088 156.014 19.2069 156.014 17.0783ZM171.533 17.1155C171.533 15.5314 171.087 14.2814 170.196 13.3657C169.33 12.4499 168.266 11.992 167.003 11.992C165.741 11.992 164.664 12.4499 163.773 13.3657C162.907 14.2567 162.474 15.4943 162.474 17.0783C162.474 18.6624 162.907 19.9247 163.773 20.8653C164.664 21.7811 165.741 22.239 167.003 22.239C168.266 22.239 169.33 21.7811 170.196 20.8653C171.087 19.9495 171.533 18.6995 171.533 17.1155Z" fill="#F9F9F9"/>
<path d="M188.823 0V27.4738H182.475V0H188.823Z" fill="#F9F9F9"/>
<path d="M202.854 27.7709C200.825 27.7709 198.993 27.3377 197.36 26.4714C195.751 25.6051 194.476 24.3676 193.535 22.7587C192.62 21.1499 192.162 19.2688 192.162 17.1155C192.162 14.9869 192.632 13.1181 193.573 11.5093C194.513 9.87573 195.8 8.62579 197.434 7.7595C199.067 6.89321 200.899 6.46006 202.929 6.46006C204.958 6.46006 206.79 6.89321 208.423 7.7595C210.057 8.62579 211.344 9.87573 212.284 11.5093C213.225 13.1181 213.695 14.9869 213.695 17.1155C213.695 19.2441 213.213 21.1252 212.247 22.7587C211.307 24.3676 210.007 25.6051 208.349 26.4714C206.715 27.3377 204.884 27.7709 202.854 27.7709ZM202.854 22.2761C204.067 22.2761 205.094 21.8306 205.936 20.9395C206.802 20.0485 207.235 18.7738 207.235 17.1155C207.235 15.4571 206.814 14.1824 205.973 13.2914C205.156 12.4004 204.141 11.9548 202.929 11.9548C201.691 11.9548 200.664 12.4004 199.847 13.2914C199.03 14.1577 198.622 15.4324 198.622 17.1155C198.622 18.7738 199.018 20.0485 199.81 20.9395C200.627 21.8306 201.641 22.2761 202.854 22.2761Z" fill="#F9F9F9"/>
<path d="M229.687 6.53432C232.112 6.53432 234.043 7.32636 235.478 8.91043C236.939 10.4698 237.669 12.6231 237.669 15.3705V27.4738H231.357V16.2244C231.357 14.8383 230.998 13.7617 230.281 12.9944C229.563 12.2271 228.597 11.8435 227.385 11.8435C226.172 11.8435 225.207 12.2271 224.489 12.9944C223.771 13.7617 223.412 14.8383 223.412 16.2244V27.4738H217.063V6.75708H223.412V9.50446C224.056 8.58867 224.922 7.87088 226.011 7.35111C227.1 6.80658 228.325 6.53432 229.687 6.53432Z" fill="#F9F9F9"/>
<path d="M245.62 27.7708C244.507 27.7708 243.591 27.4491 242.873 26.8055C242.18 26.1372 241.833 25.3205 241.833 24.3552C241.833 23.3651 242.18 22.5359 242.873 21.8677C243.591 21.1994 244.507 20.8652 245.62 20.8652C246.709 20.8652 247.6 21.1994 248.294 21.8677C249.011 22.5359 249.37 23.3651 249.37 24.3552C249.37 25.3205 249.011 26.1372 248.294 26.8055C247.6 27.4491 246.709 27.7708 245.62 27.7708Z" fill="#0F241D"/>
</svg>
